<mxfile host="app.diagrams.net" modified="2023-04-02T13:02:22.389Z" agent="Mozilla/5.0 (Macintosh; Intel Mac OS X 10_15_7) AppleWebKit/537.36 (KHTML, like Gecko) Chrome/113.0.0.0 Safari/537.36" version="21.1.1" etag="cFMqJ3K965LZ4TIGcaSl" type="github">
  <diagram name="第 1 页" id="Ork98UZKCyqx9UMFxZzH">
    <mxGraphModel>
      <root>
        <mxCell id="0" />
        <mxCell id="1" parent="0" />
      </root>
    </mxGraphModel>
  </diagram>
</mxfile>
